<svg version="1.1" id="Layer_1" xmlns="http://www.w3.org/2000/svg" xmlns:xlink="http://www.w3.org/1999/xlink" x="0px" y="0px"
	 width="100%" viewBox="0 0 64 54" enable-background="new 0 0 64 54" xml:space="preserve">
<path fill="#000000" opacity="1.000000" stroke="none" 
	d="
M43.000290,55.000000 
	C28.666895,55.000000 14.833565,55.000000 1.000176,55.000000 
	C1.000118,37.000084 1.000118,19.000166 1.000059,1.000186 
	C22.333246,1.000124 43.666492,1.000124 64.999802,1.000062 
	C64.999870,18.999908 64.999870,36.999817 64.999939,54.999863 
	C57.833450,55.000000 50.666901,55.000000 43.000290,55.000000 
M54.773323,16.645407 
	C54.552753,16.390854 54.332180,16.136301 53.804535,15.267307 
	C52.863693,14.798262 51.922848,14.329215 50.842930,13.127727 
	C47.710278,10.846938 35.420452,10.315847 32.732700,12.516987 
	C32.368008,12.815655 32.875652,14.179509 32.976898,15.883940 
	C32.554405,19.255424 32.131908,22.626907 31.383858,26.607485 
	C31.030018,26.902243 30.676178,27.196999 29.869164,26.603687 
	C29.255274,22.881020 28.346781,19.176184 28.120008,15.430082 
	C27.936096,12.391945 26.485950,11.799565 23.323851,12.017210 
	C22.884142,12.016865 22.444433,12.016520 21.310085,12.124802 
	C20.236151,16.137352 19.162216,20.149904 17.869303,24.980637 
	C17.092438,21.769745 16.500286,19.322302 15.914836,16.019796 
	C15.914836,14.462060 15.914836,12.904324 15.914836,11.119118 
	C13.444791,11.119118 11.561380,11.119118 9.139465,11.119118 
	C9.542227,12.797698 9.891134,14.251833 10.067823,16.580336 
	C10.741370,21.230066 11.414917,25.879799 12.130758,30.821505 
	C15.739987,27.963972 18.912285,26.170332 22.081306,30.096020 
	C22.905783,29.053545 23.520725,28.276009 24.580879,26.935539 
	C24.868313,28.532639 25.011292,29.327091 25.095865,30.919703 
	C25.816072,33.274509 26.536280,35.629318 27.256487,37.984127 
	C27.573120,37.875462 27.889751,37.766796 28.206383,37.658127 
	C27.872248,39.413975 27.538113,41.169819 27.552141,43.568348 
	C29.312775,43.715210 31.073410,43.862072 32.593010,43.988827 
	C33.472469,41.427654 34.231213,39.218037 35.176205,37.595802 
	C35.226772,38.002853 35.277340,38.409901 35.161446,39.652035 
	C34.504467,44.140011 37.098186,44.188789 41.141594,43.622818 
	C46.152298,43.879738 51.475250,45.115311 55.101677,38.907253 
	C55.359196,37.292473 55.616714,35.677692 56.005184,33.349693 
	C55.964706,32.869827 55.924232,32.389961 55.905735,31.307341 
	C55.610229,30.815157 55.314724,30.322973 55.031513,29.383368 
	C55.031513,29.383368 54.924305,28.948805 54.874996,28.477364 
	C54.698196,28.154970 54.429398,28.029198 53.575932,27.814606 
	C53.337761,27.521107 53.099590,27.227606 52.845417,26.218794 
	C53.182919,25.120668 53.520416,24.022543 54.301430,22.462608 
	C54.354088,21.622265 54.406742,20.781919 54.687191,19.260481 
	C54.641926,18.546366 54.596661,17.832251 54.773323,16.645407 
M21.781355,37.286167 
	C22.029610,35.602924 22.277866,33.919678 22.658171,31.341105 
	C19.832071,32.903927 17.956079,34.081837 15.963093,35.007988 
	C13.455265,36.173389 13.358378,37.929859 14.176965,40.878799 
	C14.538656,45.753071 18.084038,43.206867 21.234266,44.030769 
	C21.234266,41.556385 21.234266,39.552975 21.781355,37.286167 
z"/>
<path fill="#212523" opacity="1.000000" stroke="none" 
	d="
M23.982248,12.055234 
	C26.485950,11.799565 27.936096,12.391945 28.120008,15.430082 
	C28.346781,19.176184 29.255274,22.881020 30.050697,27.037418 
	C30.232233,27.471149 30.049761,27.431759 30.044579,27.796061 
	C30.049801,28.403034 30.060207,28.645704 29.698135,28.901693 
	C27.935196,29.317192 26.544733,29.719370 25.154270,30.121548 
	C25.011292,29.327091 24.868313,28.532639 24.580879,26.935539 
	C23.520725,28.276009 22.905783,29.053545 22.081306,30.096020 
	C18.912285,26.170332 15.739987,27.963972 12.130758,30.821505 
	C11.414917,25.879799 10.741370,21.230066 10.500791,16.261492 
	C12.591884,16.253386 14.250010,16.564123 15.908136,16.874859 
	C16.500286,19.322302 17.092438,21.769745 17.869303,24.980637 
	C19.162216,20.149904 20.236151,16.137352 21.656746,12.354254 
	C22.293701,13.064318 22.583998,13.544930 22.874296,14.025541 
	C23.243614,13.368773 23.612932,12.712004 23.982248,12.055234 
M22.883701,19.927610 
	C23.150423,18.921646 23.417145,17.915682 23.683868,16.909718 
	C23.155073,16.866282 22.626278,16.822844 22.097483,16.779408 
	C22.214497,17.949127 22.331512,19.118849 22.883701,19.927610 
z"/>
<path fill="#C6C7C3" opacity="1.000000" stroke="none" 
	d="
M54.561619,39.341000 
	C51.475250,45.115311 46.152298,43.879738 40.719299,43.187080 
	C38.789001,41.252499 39.978867,36.346279 35.327908,38.816952 
	C35.277340,38.409901 35.226772,38.002853 35.107582,37.034691 
	C34.741859,36.040001 34.444763,35.606422 34.401215,35.055969 
	C35.123707,34.381218 35.592651,33.823341 36.432961,33.227234 
	C38.863079,33.793930 40.921825,34.398857 43.073463,35.388840 
	C44.306789,40.024624 46.678898,38.225327 49.318527,37.028107 
	C51.315712,37.851021 52.938667,38.596012 54.561619,39.341000 
z"/>
<path fill="#494C48" opacity="1.000000" stroke="none" 
	d="
M42.980576,35.003784 
	C40.921825,34.398857 38.863079,33.793930 36.304653,32.989227 
	C36.207397,31.820984 36.609814,30.852522 37.338181,29.852467 
	C38.786003,29.195135 39.907871,28.569399 41.105633,28.114552 
	C41.427361,28.155645 41.673203,28.025852 41.937119,27.896954 
	C41.955196,27.897846 41.906967,27.888481 42.328697,27.908718 
	C46.120762,27.597342 49.491089,27.265724 52.861420,26.934107 
	C53.099590,27.227606 53.337761,27.521107 53.905617,28.151503 
	C54.404037,28.733044 54.633705,28.886511 54.924305,28.948805 
	C54.924305,28.948805 55.031513,29.383368 55.052979,29.899563 
	C55.344215,30.913870 55.613987,31.411982 55.883755,31.910091 
	C55.924232,32.389961 55.964706,32.869827 55.525208,33.690926 
	C53.109364,34.052387 51.173500,34.072620 49.147530,33.683201 
	C48.249947,32.169106 47.442471,31.064661 46.634995,29.960217 
	C45.721916,30.942129 44.741405,31.871695 43.922371,32.926617 
	C43.468910,33.510677 43.285637,34.304508 42.980576,35.003784 
z"/>
<path fill="#0C1110" opacity="1.000000" stroke="none" 
	d="
M31.709412,25.998394 
	C32.131908,22.626907 32.554405,19.255424 33.256458,15.228374 
	C37.995968,12.778424 41.882515,12.729753 44.001305,18.269218 
	C43.774139,18.969826 43.562611,19.416611 42.977699,19.871456 
	C41.383625,20.562822 40.162926,21.246128 38.637459,21.990507 
	C37.834743,22.643494 37.336800,23.235409 36.833965,23.834366 
	C36.829071,23.841408 36.818794,23.854218 36.451908,23.844875 
	C34.626488,24.556486 33.167950,25.277439 31.709412,25.998394 
z"/>
<path fill="#161B1A" opacity="1.000000" stroke="none" 
	d="
M44.016941,18.015398 
	C41.882515,12.729753 37.995968,12.778424 33.257698,14.811481 
	C32.875652,14.179509 32.368008,12.815655 32.732700,12.516987 
	C35.420452,10.315847 47.710278,10.846938 50.809502,13.817013 
	C49.768425,15.351044 48.760780,16.195787 47.413307,17.047983 
	C46.054638,17.375422 45.035789,17.695410 44.016941,18.015398 
z"/>
<path fill="#555956" opacity="1.000000" stroke="none" 
	d="
M25.125067,30.520626 
	C26.544733,29.719370 27.935196,29.317192 29.899109,28.921717 
	C30.472555,28.928419 30.857206,28.804771 30.915606,29.164576 
	C31.316021,30.684702 31.658037,31.845022 31.934017,33.369301 
	C30.313313,36.797394 28.758644,39.861530 27.203976,42.925667 
	C27.538113,41.169819 27.872248,39.413975 28.206383,37.658127 
	C27.889751,37.766796 27.573120,37.875462 27.256487,37.984127 
	C26.536280,35.629318 25.816072,33.274509 25.125067,30.520626 
z"/>
<path fill="#6A6D69" opacity="1.000000" stroke="none" 
	d="
M32.000053,33.005344 
	C31.658037,31.845022 31.316021,30.684702 30.957294,28.813259 
	C30.643642,27.878677 30.346703,27.655218 30.049761,27.431759 
	C30.049761,27.431759 30.232233,27.471149 30.277285,27.481453 
	C30.676178,27.196999 31.030018,26.902243 31.546635,26.302940 
	C33.167950,25.277439 34.626488,24.556486 36.532742,24.271526 
	C36.991055,26.433035 37.001644,28.158548 37.012234,29.884062 
	C36.609814,30.852522 36.207397,31.820984 35.933289,33.027454 
	C35.592651,33.823341 35.123707,34.381218 34.316944,34.728275 
	C33.319435,34.013416 32.659744,33.509380 32.000053,33.005344 
z"/>
<path fill="#454845" opacity="1.000000" stroke="none" 
	d="
M31.934017,33.369301 
	C32.659744,33.509380 33.319435,34.013416 34.063396,34.845146 
	C34.444763,35.606422 34.741859,36.040001 35.014458,36.741001 
	C34.231213,39.218037 33.472469,41.427654 32.593010,43.988827 
	C31.073410,43.862072 29.312775,43.715210 27.378059,43.247009 
	C28.758644,39.861530 30.313313,36.797394 31.934017,33.369301 
z"/>
<path fill="#646663" opacity="1.000000" stroke="none" 
	d="
M14.362425,40.112053 
	C13.358378,37.929859 13.455265,36.173389 15.963093,35.007988 
	C17.956079,34.081837 19.832071,32.903927 22.658171,31.341105 
	C22.277866,33.919678 22.029610,35.602924 21.138321,37.513351 
	C18.451000,38.531044 16.406712,39.321548 14.362425,40.112053 
z"/>
<path fill="#6E6F6C" opacity="1.000000" stroke="none" 
	d="
M52.853416,26.576450 
	C49.491089,27.265724 46.120762,27.597342 42.395992,27.585678 
	C43.352772,26.178751 44.663986,25.115107 46.183853,23.938972 
	C46.905838,23.477505 47.419170,23.128527 48.421936,22.858398 
	C50.560215,22.932972 52.209064,22.928694 53.857914,22.924417 
	C53.520416,24.022543 53.182919,25.120668 52.853416,26.576450 
z"/>
<path fill="#777A77" opacity="1.000000" stroke="none" 
	d="
M15.911486,16.447327 
	C14.250010,16.564123 12.591884,16.253386 10.586901,15.824307 
	C9.891134,14.251833 9.542227,12.797698 9.139465,11.119118 
	C11.561380,11.119118 13.444791,11.119118 15.914836,11.119118 
	C15.914836,12.904324 15.914836,14.462060 15.911486,16.447327 
z"/>
<path fill="#B5B6B2" opacity="1.000000" stroke="none" 
	d="
M47.753136,17.040531 
	C48.760780,16.195787 49.768425,15.351044 50.879036,14.183234 
	C51.922848,14.329215 52.863693,14.798262 53.941299,15.806713 
	C54.113853,16.678253 54.271633,16.935591 54.551392,17.118135 
	C54.596661,17.832251 54.641926,18.546366 54.110237,19.641682 
	C51.757267,20.609846 49.981247,21.196810 48.140099,21.448605 
	C47.967693,19.755800 47.860413,18.398165 47.753136,17.040531 
z"/>
<path fill="#8F908C" opacity="1.000000" stroke="none" 
	d="
M14.269695,40.495426 
	C16.406712,39.321548 18.451000,38.531044 20.864777,37.645054 
	C21.234266,39.552975 21.234266,41.556385 21.234266,44.030769 
	C18.084038,43.206867 14.538656,45.753071 14.269695,40.495426 
z"/>
<path fill="#6F716D" opacity="1.000000" stroke="none" 
	d="
M49.237637,34.092850 
	C51.173500,34.072620 53.109364,34.052387 55.459732,34.047535 
	C55.616714,35.677692 55.359196,37.292473 54.831650,39.124126 
	C52.938667,38.596012 51.315712,37.851021 49.293289,36.667107 
	C49.008427,35.516403 49.123032,34.804626 49.237637,34.092850 
z"/>
<path fill="#747672" opacity="1.000000" stroke="none" 
	d="
M35.244675,39.234493 
	C39.978867,36.346279 38.789001,41.252499 40.296661,43.081753 
	C37.098186,44.188789 34.504467,44.140011 35.244675,39.234493 
z"/>
<path fill="#A5A6A1" opacity="1.000000" stroke="none" 
	d="
M48.205227,21.783773 
	C49.981247,21.196810 51.757267,20.609846 53.996346,19.982229 
	C54.406742,20.781919 54.354088,21.622265 54.079674,22.693512 
	C52.209064,22.928694 50.560215,22.932972 48.450851,22.710093 
	C48.020840,22.240166 48.092468,22.007113 48.205227,21.783773 
z"/>
<path fill="#292D2C" opacity="1.000000" stroke="none" 
	d="
M23.653049,12.036222 
	C23.612932,12.712004 23.243614,13.368773 22.874296,14.025541 
	C22.583998,13.544930 22.293701,13.064318 22.004065,12.299940 
	C22.444433,12.016520 22.884142,12.016865 23.653049,12.036222 
z"/>
<path fill="#6F716D" opacity="1.000000" stroke="none" 
	d="
M55.894745,31.608715 
	C55.613987,31.411982 55.344215,30.913870 55.046829,30.123274 
	C55.314724,30.322973 55.610229,30.815157 55.894745,31.608715 
z"/>
<path fill="#6F716D" opacity="1.000000" stroke="none" 
	d="
M54.899651,28.713085 
	C54.633705,28.886511 54.404037,28.733044 54.151951,28.294224 
	C54.429398,28.029198 54.698196,28.154970 54.899651,28.713085 
z"/>
<path fill="#6E6F6C" opacity="1.000000" stroke="none" 
	d="
M54.662361,16.881771 
	C54.271633,16.935591 54.113853,16.678253 54.094833,16.113934 
	C54.332180,16.136301 54.552753,16.390854 54.662361,16.881771 
z"/>
<path fill="#292D2C" opacity="1.000000" stroke="none" 
	d="
M22.666115,20.108089 
	C22.331512,19.118849 22.214497,17.949127 22.097483,16.779408 
	C22.626278,16.822844 23.155073,16.866282 23.683868,16.909718 
	C23.417145,17.915682 23.150423,18.921646 22.666115,20.108089 
z"/>
<path fill="#000000" opacity="1.000000" stroke="none" 
	d="
M30.044579,27.796061 
	C30.346703,27.655218 30.643642,27.878677 30.898895,28.453453 
	C30.857206,28.804771 30.472555,28.928419 30.271584,28.908396 
	C30.060207,28.645704 30.049801,28.403034 30.044579,27.796061 
z"/>
<path fill="#010101" opacity="1.000000" stroke="none" 
	d="
M49.147530,33.683201 
	C49.123032,34.804626 49.008427,35.516403 48.919060,36.589180 
	C46.678898,38.225327 44.306789,40.024624 43.073467,35.388840 
	C43.285637,34.304508 43.468910,33.510677 43.922371,32.926617 
	C44.741405,31.871695 45.721916,30.942129 46.634995,29.960217 
	C47.442471,31.064661 48.249947,32.169106 49.147530,33.683201 
z"/>
<path fill="#A5A6A1" opacity="1.000000" stroke="none" 
	d="
M45.975201,24.051460 
	C44.663986,25.115107 43.352772,26.178751 41.974258,27.565439 
	C41.906967,27.888481 41.955196,27.897846 41.714016,27.890144 
	C41.472836,27.882444 41.029743,27.943665 41.029743,27.943665 
	C39.907871,28.569399 38.786003,29.195135 37.338181,29.852467 
	C37.001644,28.158548 36.991055,26.433035 36.899628,24.280869 
	C36.818794,23.854218 36.829071,23.841408 37.158108,23.818413 
	C37.972172,23.173426 38.457199,22.551432 38.942226,21.929436 
	C40.162926,21.246128 41.383625,20.562822 42.983612,20.255970 
	C44.233665,21.772102 45.104435,22.911781 45.975201,24.051460 
z"/>
<path fill="#6E6F6C" opacity="1.000000" stroke="none" 
	d="
M41.105633,28.114552 
	C41.029743,27.943665 41.472836,27.882444 41.695938,27.889252 
	C41.673203,28.025852 41.427361,28.155645 41.105633,28.114552 
z"/>
<path fill="#000000" opacity="1.000000" stroke="none" 
	d="
M46.183853,23.938971 
	C45.104435,22.911781 44.233665,21.772102 43.356987,20.247911 
	C43.562611,19.416611 43.774139,18.969826 44.001305,18.269218 
	C45.035789,17.695410 46.054638,17.375422 47.413311,17.047981 
	C47.860413,18.398165 47.967693,19.755800 48.140099,21.448605 
	C48.092468,22.007113 48.020840,22.240166 47.961418,22.631241 
	C47.419170,23.128527 46.905838,23.477505 46.183853,23.938971 
z"/>
<path fill="#6A6D69" opacity="1.000000" stroke="none" 
	d="
M38.637459,21.990509 
	C38.457199,22.551432 37.972172,23.173426 37.163002,23.811371 
	C37.336800,23.235409 37.834743,22.643494 38.637459,21.990509 
z"/>
</svg>